<svg xmlns="http://www.w3.org/2000/svg" width="344" height="344" viewBox="0 0 344 344" version="1.1">
	<path d="M 161.480 47.290 C 156.723 52.221, 153.232 57.036, 150.698 62.164 L 146.951 69.748 141.218 67.432 C 134.135 64.571, 120.130 62.777, 114.036 63.950 C 107.115 65.283, 106 67.378, 106 79.055 C 106 87.959, 106.224 89.149, 108.370 91.644 C 111.734 95.554, 117.307 95.507, 120.719 91.540 C 122.821 89.097, 123.084 88.048, 122.528 84.340 C 121.889 80.074, 121.927 80, 124.757 80 C 129.709 80, 137.402 82.814, 143.858 86.986 C 154.555 93.900, 158.815 92.173, 161.987 79.638 C 163.963 71.826, 166.498 66.542, 170.319 62.268 L 172.314 60.037 174.732 63.268 C 178.585 68.416, 179.954 71.542, 182.054 79.979 L 184.024 87.895 180.171 93.856 C 178.052 97.135, 175.742 101.209, 175.038 102.909 C 174.334 104.609, 173.307 106, 172.757 106 C 172.208 106, 165.850 104.563, 158.629 102.806 C 146.921 99.958, 143.984 99.621, 131.500 99.686 C 119.759 99.747, 115.886 100.182, 107.500 102.380 C 69.183 112.426, 39.392 143.447, 31.536 181.480 C 29.417 191.739, 29.427 211.295, 31.556 221.657 C 35.603 241.355, 44.609 258.375, 58.500 272.579 C 72.292 286.681, 87.782 295.688, 106.881 300.712 C 118.935 303.882, 139.078 304.294, 154 301.675 C 165.738 299.615, 177.719 299.551, 189.500 301.485 C 204.793 303.995, 215.547 304.336, 226.500 302.656 C 268.014 296.290, 299.312 268.480, 311.216 227.384 C 313.218 220.474, 313.500 217.277, 313.500 201.500 C 313.500 185.663, 313.222 182.541, 311.189 175.518 C 302.995 147.211, 283.019 122.918, 257.500 110.227 C 250.774 106.882, 246.353 105.214, 234.279 101.464 C 233.338 101.172, 233.382 100.169, 234.470 97.084 C 238.150 86.656, 238.298 69.869, 234.742 66.313 C 230.786 62.358, 213.957 62.799, 202.289 67.165 C 199.304 68.282, 196.781 69.039, 196.681 68.848 C 196.581 68.656, 194.942 65.350, 193.037 61.500 C 190.766 56.909, 187.140 52.005, 182.503 47.250 C 176.418 41.011, 174.950 40, 171.974 40 C 168.989 40, 167.552 40.998, 161.480 47.290 M 108.516 119.132 C 94.464 123.135, 82.824 130.010, 71.717 140.869 C 59.480 152.832, 57.786 157.327, 63.747 162.016 C 68.328 165.619, 70.562 164.706, 78.861 155.840 C 83.063 151.351, 89.765 145.537, 93.755 142.920 C 100.471 138.515, 114.115 133, 118.299 133 C 121.204 133, 125 128.468, 125 125 C 125 121.259, 121.102 116.969, 117.795 117.071 C 116.533 117.110, 112.357 118.037, 108.516 119.132 M 50.114 179.750 C 46.621 182.650, 46.374 187.103, 49.500 190.818 C 52.688 194.607, 56.468 194.993, 60.365 191.927 C 65.943 187.540, 62.471 178, 55.296 178 C 53.605 178, 51.273 178.787, 50.114 179.750" stroke="none" fill="black" fill-rule="evenodd"/>
</svg>